<mxfile host="app.diagrams.net" modified="2021-02-24T14:35:51.612Z" agent="5.0 (Macintosh; Intel Mac OS X 10_15_6) AppleWebKit/605.1.15 (KHTML, like Gecko) Version/14.0.2 Safari/605.1.15" etag="YtlvJDkxpZkM9pCFCcyC" version="14.3.1" type="github">
  <diagram id="u3M3MH3VRPwEhxvUo-A4" name="DisseminationFlow">
    <mxGraphModel dx="2013" dy="1789" grid="1" gridSize="10" guides="1" tooltips="1" connect="1" arrows="1" fold="1" page="1" pageScale="1" pageWidth="827" pageHeight="1169" math="0" shadow="0">
      <root>
        <mxCell id="VXwVcR1VCdGhq1ZCbqeW-0" />
        <mxCell id="VXwVcR1VCdGhq1ZCbqeW-1" parent="VXwVcR1VCdGhq1ZCbqeW-0" />
        <mxCell id="Ld5JpADTBhUxVkaLZ1vy-0" value="User starts &lt;br&gt;interaction" style="shape=parallelogram;perimeter=parallelogramPerimeter;whiteSpace=wrap;html=1;fixedSize=1;" vertex="1" parent="VXwVcR1VCdGhq1ZCbqeW-1">
          <mxGeometry x="220" y="-80" width="120" height="60" as="geometry" />
        </mxCell>
        <mxCell id="Ld5JpADTBhUxVkaLZ1vy-1" style="edgeStyle=orthogonalEdgeStyle;rounded=1;html=1;labelBackgroundColor=none;startArrow=none;startFill=0;startSize=5;endArrow=classicThin;endFill=1;endSize=5;jettySize=auto;orthogonalLoop=1;strokeWidth=1;fontFamily=Verdana;fontSize=8;entryX=1;entryY=0.5;entryDx=0;entryDy=0;exitX=0;exitY=0.5;exitDx=0;exitDy=0;" edge="1" parent="VXwVcR1VCdGhq1ZCbqeW-1" source="Ld5JpADTBhUxVkaLZ1vy-3" target="2-9aC944TL7LtkfWMg8r-0">
          <mxGeometry relative="1" as="geometry">
            <Array as="points">
              <mxPoint x="190" y="60" />
              <mxPoint x="190" y="65" />
            </Array>
            <mxPoint x="250" y="120" as="sourcePoint" />
            <mxPoint x="110" y="155" as="targetPoint" />
          </mxGeometry>
        </mxCell>
        <mxCell id="Ld5JpADTBhUxVkaLZ1vy-2" value="Audio/ vid / img" style="edgeLabel;html=1;align=center;verticalAlign=middle;resizable=0;points=[];" vertex="1" connectable="0" parent="Ld5JpADTBhUxVkaLZ1vy-1">
          <mxGeometry x="0.34" y="-3" relative="1" as="geometry">
            <mxPoint x="34" y="-2" as="offset" />
          </mxGeometry>
        </mxCell>
        <mxCell id="2-9aC944TL7LtkfWMg8r-4" value="" style="edgeStyle=orthogonalEdgeStyle;rounded=0;orthogonalLoop=1;jettySize=auto;html=1;" edge="1" parent="VXwVcR1VCdGhq1ZCbqeW-1" source="Ld5JpADTBhUxVkaLZ1vy-3">
          <mxGeometry relative="1" as="geometry">
            <mxPoint x="380" y="60" as="targetPoint" />
          </mxGeometry>
        </mxCell>
        <mxCell id="2-9aC944TL7LtkfWMg8r-9" style="edgeStyle=orthogonalEdgeStyle;rounded=0;orthogonalLoop=1;jettySize=auto;html=1;exitX=0.5;exitY=1;exitDx=0;exitDy=0;entryX=0.455;entryY=-0.05;entryDx=0;entryDy=0;entryPerimeter=0;" edge="1" parent="VXwVcR1VCdGhq1ZCbqeW-1" source="Ld5JpADTBhUxVkaLZ1vy-3" target="2-9aC944TL7LtkfWMg8r-11">
          <mxGeometry relative="1" as="geometry">
            <mxPoint x="280" y="240" as="targetPoint" />
            <Array as="points">
              <mxPoint x="280" y="240" />
              <mxPoint x="281" y="240" />
            </Array>
          </mxGeometry>
        </mxCell>
        <mxCell id="Ld5JpADTBhUxVkaLZ1vy-3" value="Message &lt;br&gt;type" style="rhombus;whiteSpace=wrap;html=1;" vertex="1" parent="VXwVcR1VCdGhq1ZCbqeW-1">
          <mxGeometry x="240" y="20" width="80" height="80" as="geometry" />
        </mxCell>
        <mxCell id="Ld5JpADTBhUxVkaLZ1vy-4" style="edgeStyle=orthogonalEdgeStyle;rounded=1;html=1;labelBackgroundColor=none;startArrow=none;startFill=0;startSize=5;endArrow=classicThin;endFill=1;endSize=5;jettySize=auto;orthogonalLoop=1;strokeWidth=1;fontFamily=Verdana;fontSize=8;exitX=0.5;exitY=1;exitDx=0;exitDy=0;" edge="1" parent="VXwVcR1VCdGhq1ZCbqeW-1" source="Ld5JpADTBhUxVkaLZ1vy-0">
          <mxGeometry relative="1" as="geometry">
            <mxPoint x="170" y="59.5" as="sourcePoint" />
            <mxPoint x="280" y="20" as="targetPoint" />
          </mxGeometry>
        </mxCell>
        <mxCell id="2-9aC944TL7LtkfWMg8r-13" value="" style="edgeStyle=orthogonalEdgeStyle;rounded=0;orthogonalLoop=1;jettySize=auto;html=1;entryX=-0.014;entryY=0.833;entryDx=0;entryDy=0;entryPerimeter=0;" edge="1" parent="VXwVcR1VCdGhq1ZCbqeW-1" source="2-9aC944TL7LtkfWMg8r-0" target="2-9aC944TL7LtkfWMg8r-7">
          <mxGeometry relative="1" as="geometry">
            <mxPoint x="370" y="120" as="targetPoint" />
            <Array as="points">
              <mxPoint x="25" y="120" />
            </Array>
          </mxGeometry>
        </mxCell>
        <mxCell id="-XrDtkGbPhwZa2Y3Gsro-2" value="No reply rcvd in 12 hr" style="edgeStyle=orthogonalEdgeStyle;rounded=0;orthogonalLoop=1;jettySize=auto;html=1;" edge="1" parent="VXwVcR1VCdGhq1ZCbqeW-1" source="-XrDtkGbPhwZa2Y3Gsro-5" target="-XrDtkGbPhwZa2Y3Gsro-1">
          <mxGeometry relative="1" as="geometry" />
        </mxCell>
        <mxCell id="2-9aC944TL7LtkfWMg8r-0" value="&lt;p&gt;&lt;/p&gt;&lt;ol&gt;&lt;li style=&quot;text-align: left&quot;&gt;&lt;font style=&quot;font-size: 11px&quot;&gt;to report this media.&lt;br&gt;&lt;/font&gt;&lt;/li&gt;&lt;li style=&quot;text-align: left&quot;&gt;&lt;font style=&quot;font-size: 11px&quot;&gt;to go to menu.&lt;br&gt;&lt;/font&gt;&lt;/li&gt;&lt;li&gt;&lt;div style=&quot;text-align: left&quot;&gt;&lt;span style=&quot;font-size: 11px&quot;&gt;to&amp;nbsp;&amp;nbsp;chat with team.&amp;nbsp;&lt;/span&gt;&lt;/div&gt;&lt;/li&gt;&lt;/ol&gt;&lt;p&gt;&lt;/p&gt;" style="rounded=1;whiteSpace=wrap;html=1;shadow=0;labelBackgroundColor=none;strokeWidth=1;fontFamily=Verdana;fontSize=8;align=center;" vertex="1" parent="VXwVcR1VCdGhq1ZCbqeW-1">
          <mxGeometry x="-60" y="30" width="170" height="60" as="geometry" />
        </mxCell>
        <mxCell id="2-9aC944TL7LtkfWMg8r-6" value="&quot;hi&quot;" style="text;html=1;strokeColor=none;fillColor=none;align=center;verticalAlign=middle;whiteSpace=wrap;rounded=0;" vertex="1" parent="VXwVcR1VCdGhq1ZCbqeW-1">
          <mxGeometry x="330" y="30" width="40" height="20" as="geometry" />
        </mxCell>
        <mxCell id="2-9aC944TL7LtkfWMg8r-18" value="" style="edgeStyle=orthogonalEdgeStyle;rounded=0;orthogonalLoop=1;jettySize=auto;html=1;exitX=1.014;exitY=0.308;exitDx=0;exitDy=0;exitPerimeter=0;" edge="1" parent="VXwVcR1VCdGhq1ZCbqeW-1" source="2-9aC944TL7LtkfWMg8r-7" target="2-9aC944TL7LtkfWMg8r-17">
          <mxGeometry relative="1" as="geometry" />
        </mxCell>
        <mxCell id="2-9aC944TL7LtkfWMg8r-7" value="&lt;div style=&quot;text-align: justify&quot;&gt;&lt;ol&gt;&lt;li&gt;to report something.&lt;br&gt;&lt;/li&gt;&lt;li&gt;to receive latest posts.&lt;br&gt;&lt;/li&gt;&lt;li&gt;to chat with team -------&lt;/li&gt;&lt;/ol&gt;&lt;ul&gt;&lt;li&gt;to edit/ delete previously reported media.&lt;br&gt;&lt;/li&gt;&lt;li&gt;to learn about earning opps&lt;br&gt;&lt;/li&gt;&lt;/ul&gt;&lt;/div&gt;" style="rounded=1;whiteSpace=wrap;html=1;fillColor=#FFFF33;" vertex="1" parent="VXwVcR1VCdGhq1ZCbqeW-1">
          <mxGeometry x="380" y="20" width="210" height="120" as="geometry" />
        </mxCell>
        <mxCell id="2-9aC944TL7LtkfWMg8r-10" value="other text" style="text;html=1;strokeColor=none;fillColor=none;align=center;verticalAlign=middle;whiteSpace=wrap;rounded=0;" vertex="1" parent="VXwVcR1VCdGhq1ZCbqeW-1">
          <mxGeometry x="280" y="180" width="40" height="20" as="geometry" />
        </mxCell>
        <mxCell id="2-9aC944TL7LtkfWMg8r-11" value="I&#39;m confused what is this text for?&lt;br&gt;&lt;ol&gt;&lt;li&gt;Related to previous media you submitted?&lt;/li&gt;&lt;li&gt;Report new content.&lt;/li&gt;&lt;li&gt;to chat with team&lt;/li&gt;&lt;/ol&gt;" style="rounded=1;whiteSpace=wrap;html=1;" vertex="1" parent="VXwVcR1VCdGhq1ZCbqeW-1">
          <mxGeometry x="190" y="250" width="200" height="100" as="geometry" />
        </mxCell>
        <mxCell id="2-9aC944TL7LtkfWMg8r-15" value="2" style="text;html=1;strokeColor=none;fillColor=none;align=center;verticalAlign=middle;whiteSpace=wrap;rounded=0;" vertex="1" parent="VXwVcR1VCdGhq1ZCbqeW-1">
          <mxGeometry x="160" y="100" width="40" height="20" as="geometry" />
        </mxCell>
        <mxCell id="2-9aC944TL7LtkfWMg8r-21" value="" style="edgeStyle=orthogonalEdgeStyle;rounded=0;orthogonalLoop=1;jettySize=auto;html=1;" edge="1" parent="VXwVcR1VCdGhq1ZCbqeW-1" source="2-9aC944TL7LtkfWMg8r-17" target="2-9aC944TL7LtkfWMg8r-20">
          <mxGeometry relative="1" as="geometry" />
        </mxCell>
        <mxCell id="2-9aC944TL7LtkfWMg8r-17" value="Press corrsponding button to receive:&amp;nbsp;&lt;br&gt;&lt;ol&gt;&lt;li&gt;songs&lt;br&gt;&lt;/li&gt;&lt;li&gt;grievances&lt;/li&gt;&lt;li&gt;stories&lt;/li&gt;&lt;li&gt;others content&lt;/li&gt;&lt;li&gt;to go to previous menu&lt;/li&gt;&lt;/ol&gt;" style="whiteSpace=wrap;html=1;rounded=1;align=left;" vertex="1" parent="VXwVcR1VCdGhq1ZCbqeW-1">
          <mxGeometry x="660" width="210" height="110" as="geometry" />
        </mxCell>
        <mxCell id="2-9aC944TL7LtkfWMg8r-19" value="2" style="text;html=1;strokeColor=none;fillColor=none;align=center;verticalAlign=middle;whiteSpace=wrap;rounded=0;" vertex="1" parent="VXwVcR1VCdGhq1ZCbqeW-1">
          <mxGeometry x="620" y="50" width="40" height="20" as="geometry" />
        </mxCell>
        <mxCell id="2-9aC944TL7LtkfWMg8r-20" value="Here are top 5 i:&amp;nbsp;&lt;br&gt;........&lt;br&gt;&lt;br&gt;Press:&lt;br&gt;&lt;ol&gt;&lt;li&gt;next&lt;/li&gt;&lt;li&gt;previous menu&lt;/li&gt;&lt;li&gt;main menu&lt;/li&gt;&lt;/ol&gt;------ to rate the content" style="whiteSpace=wrap;html=1;rounded=1;align=left;" vertex="1" parent="VXwVcR1VCdGhq1ZCbqeW-1">
          <mxGeometry x="950" y="-30" width="155" height="140" as="geometry" />
        </mxCell>
        <mxCell id="2-9aC944TL7LtkfWMg8r-22" value="i" style="text;html=1;align=center;verticalAlign=middle;resizable=0;points=[];autosize=1;" vertex="1" parent="VXwVcR1VCdGhq1ZCbqeW-1">
          <mxGeometry x="890" y="30" width="20" height="20" as="geometry" />
        </mxCell>
        <mxCell id="2-9aC944TL7LtkfWMg8r-32" value="" style="edgeStyle=orthogonalEdgeStyle;rounded=0;orthogonalLoop=1;jettySize=auto;html=1;entryX=0.5;entryY=0;entryDx=0;entryDy=0;" edge="1" parent="VXwVcR1VCdGhq1ZCbqeW-1">
          <mxGeometry relative="1" as="geometry">
            <mxPoint x="1108.5" y="40" as="sourcePoint" />
            <mxPoint x="1050" y="-30" as="targetPoint" />
            <Array as="points">
              <mxPoint x="1158.5" y="40" />
              <mxPoint x="1158.5" y="-70" />
              <mxPoint x="1050.5" y="-70" />
              <mxPoint x="1050.5" y="-60" />
            </Array>
          </mxGeometry>
        </mxCell>
        <mxCell id="2-9aC944TL7LtkfWMg8r-33" value="1" style="edgeLabel;html=1;align=center;verticalAlign=middle;resizable=0;points=[];" vertex="1" connectable="0" parent="2-9aC944TL7LtkfWMg8r-32">
          <mxGeometry x="0.9527" y="6" relative="1" as="geometry">
            <mxPoint x="111.38" y="16.9" as="offset" />
          </mxGeometry>
        </mxCell>
        <mxCell id="2-9aC944TL7LtkfWMg8r-34" value="2" style="endArrow=classic;html=1;" edge="1" parent="VXwVcR1VCdGhq1ZCbqeW-1">
          <mxGeometry width="50" height="50" relative="1" as="geometry">
            <mxPoint x="950" y="79.5" as="sourcePoint" />
            <mxPoint x="870" y="79.5" as="targetPoint" />
          </mxGeometry>
        </mxCell>
        <mxCell id="2-9aC944TL7LtkfWMg8r-35" value="3" style="endArrow=classic;html=1;entryX=1.014;entryY=0.9;entryDx=0;entryDy=0;entryPerimeter=0;exitX=0.5;exitY=1;exitDx=0;exitDy=0;" edge="1" parent="VXwVcR1VCdGhq1ZCbqeW-1" source="2-9aC944TL7LtkfWMg8r-20" target="2-9aC944TL7LtkfWMg8r-7">
          <mxGeometry width="50" height="50" relative="1" as="geometry">
            <mxPoint x="1020" y="128" as="sourcePoint" />
            <mxPoint x="980" y="120" as="targetPoint" />
            <Array as="points">
              <mxPoint x="1028" y="128" />
            </Array>
          </mxGeometry>
        </mxCell>
        <mxCell id="-XrDtkGbPhwZa2Y3Gsro-0" value="5" style="endArrow=classic;html=1;entryX=1.01;entryY=0.592;entryDx=0;entryDy=0;entryPerimeter=0;exitX=-0.014;exitY=0.818;exitDx=0;exitDy=0;exitPerimeter=0;" edge="1" parent="VXwVcR1VCdGhq1ZCbqeW-1" source="2-9aC944TL7LtkfWMg8r-17" target="2-9aC944TL7LtkfWMg8r-7">
          <mxGeometry width="50" height="50" relative="1" as="geometry">
            <mxPoint x="650" y="90" as="sourcePoint" />
            <mxPoint x="610" y="130" as="targetPoint" />
          </mxGeometry>
        </mxCell>
        <mxCell id="-XrDtkGbPhwZa2Y3Gsro-1" value="&lt;font style=&quot;font-size: 11px&quot;&gt;Thank you for sharing.&amp;nbsp;&lt;br&gt;Your submission Id is .... Please use for future reference to make edits to this submission.&lt;/font&gt;" style="whiteSpace=wrap;html=1;rounded=1;shadow=0;fontFamily=Verdana;fontSize=8;strokeWidth=1;" vertex="1" parent="VXwVcR1VCdGhq1ZCbqeW-1">
          <mxGeometry x="-700" y="20" width="175" height="80" as="geometry" />
        </mxCell>
        <mxCell id="-XrDtkGbPhwZa2Y3Gsro-9" value="" style="edgeStyle=orthogonalEdgeStyle;rounded=0;orthogonalLoop=1;jettySize=auto;html=1;" edge="1" parent="VXwVcR1VCdGhq1ZCbqeW-1" source="-XrDtkGbPhwZa2Y3Gsro-5" target="-XrDtkGbPhwZa2Y3Gsro-8">
          <mxGeometry relative="1" as="geometry" />
        </mxCell>
        <mxCell id="-XrDtkGbPhwZa2Y3Gsro-5" value="&lt;font&gt;&lt;span style=&quot;font-size: 11px&quot;&gt;Thank you for sharing.&amp;nbsp;&lt;/span&gt;&lt;br&gt;&lt;span style=&quot;font-size: 11px&quot;&gt;Reply with&amp;nbsp;&lt;/span&gt;&lt;br&gt;&lt;ol&gt;&lt;li&gt;&lt;span style=&quot;font-size: 11px&quot;&gt;story&lt;/span&gt;&lt;/li&gt;&lt;li&gt;&lt;span style=&quot;font-size: 11px&quot;&gt;grievance&lt;/span&gt;&lt;/li&gt;&lt;li&gt;&lt;span style=&quot;font-size: 11px&quot;&gt;song&lt;/span&gt;&lt;/li&gt;&lt;li&gt;&lt;span style=&quot;font-size: 11px&quot;&gt;other&lt;/span&gt;&lt;/li&gt;&lt;/ol&gt;&lt;/font&gt;" style="whiteSpace=wrap;html=1;rounded=1;shadow=0;fontFamily=Verdana;fontSize=8;strokeWidth=1;" vertex="1" parent="VXwVcR1VCdGhq1ZCbqeW-1">
          <mxGeometry x="-370" width="180" height="100" as="geometry" />
        </mxCell>
        <mxCell id="-XrDtkGbPhwZa2Y3Gsro-7" value="1" style="edgeStyle=orthogonalEdgeStyle;rounded=0;orthogonalLoop=1;jettySize=auto;html=1;" edge="1" parent="VXwVcR1VCdGhq1ZCbqeW-1" source="2-9aC944TL7LtkfWMg8r-0" target="-XrDtkGbPhwZa2Y3Gsro-5">
          <mxGeometry relative="1" as="geometry">
            <mxPoint x="-60" y="60" as="sourcePoint" />
            <mxPoint x="-512.5" y="370" as="targetPoint" />
          </mxGeometry>
        </mxCell>
        <mxCell id="-XrDtkGbPhwZa2Y3Gsro-11" value="Yes" style="edgeStyle=orthogonalEdgeStyle;rounded=0;orthogonalLoop=1;jettySize=auto;html=1;" edge="1" parent="VXwVcR1VCdGhq1ZCbqeW-1" source="-XrDtkGbPhwZa2Y3Gsro-8" target="-XrDtkGbPhwZa2Y3Gsro-10">
          <mxGeometry relative="1" as="geometry" />
        </mxCell>
        <mxCell id="-XrDtkGbPhwZa2Y3Gsro-8" value="&lt;font style=&quot;font-size: 10px&quot;&gt;input is &amp;nbsp;4?&lt;/font&gt;" style="rhombus;whiteSpace=wrap;html=1;rounded=1;shadow=0;fontFamily=Verdana;fontSize=8;strokeWidth=1;" vertex="1" parent="VXwVcR1VCdGhq1ZCbqeW-1">
          <mxGeometry x="-340" y="160" width="120" height="110" as="geometry" />
        </mxCell>
        <mxCell id="-XrDtkGbPhwZa2Y3Gsro-10" value="&lt;font style=&quot;font-size: 10px&quot;&gt;Describe with brief text&amp;nbsp;&lt;/font&gt;" style="whiteSpace=wrap;html=1;rounded=1;shadow=0;fontFamily=Verdana;fontSize=8;strokeWidth=1;" vertex="1" parent="VXwVcR1VCdGhq1ZCbqeW-1">
          <mxGeometry x="-550" y="185" width="130" height="55" as="geometry" />
        </mxCell>
        <mxCell id="-XrDtkGbPhwZa2Y3Gsro-12" value="" style="endArrow=classic;html=1;exitX=0;exitY=0.5;exitDx=0;exitDy=0;" edge="1" parent="VXwVcR1VCdGhq1ZCbqeW-1" source="-XrDtkGbPhwZa2Y3Gsro-10">
          <mxGeometry width="50" height="50" relative="1" as="geometry">
            <mxPoint x="-670" y="150" as="sourcePoint" />
            <mxPoint x="-620" y="100" as="targetPoint" />
            <Array as="points">
              <mxPoint x="-620" y="213" />
            </Array>
          </mxGeometry>
        </mxCell>
        <mxCell id="-XrDtkGbPhwZa2Y3Gsro-13" value="Not rcvd in 12 hr" style="edgeLabel;html=1;align=center;verticalAlign=middle;resizable=0;points=[];" vertex="1" connectable="0" parent="-XrDtkGbPhwZa2Y3Gsro-12">
          <mxGeometry x="0.3443" y="-1" relative="1" as="geometry">
            <mxPoint as="offset" />
          </mxGeometry>
        </mxCell>
        <mxCell id="-XrDtkGbPhwZa2Y3Gsro-14" value="No response in next 12 hours" style="endArrow=classic;html=1;" edge="1" parent="VXwVcR1VCdGhq1ZCbqeW-1">
          <mxGeometry width="50" height="50" relative="1" as="geometry">
            <mxPoint x="-620" y="20" as="sourcePoint" />
            <mxPoint x="-620" y="-60" as="targetPoint" />
          </mxGeometry>
        </mxCell>
      </root>
    </mxGraphModel>
  </diagram>
</mxfile>
